HIERARCHY
ROOT Hips
{
	OFFSET 0.000000 0.000000 0.000000
	CHANNELS 6 Xposition Yposition Zposition Xrotation Yrotation Zrotation
	JOINT LeftUpLeg_virtual
	{
		OFFSET 0.000000 0.000000 0.000000
		CHANNELS 3 Xrotation Yrotation Zrotation
		JOINT LeftUpLeg
		{
			OFFSET 11.394100 -6.187798 -0.413800
			CHANNELS 3 Xrotation Yrotation Zrotation
			JOINT LeftLeg
			{
				OFFSET 0.430247 -32.302673 3.732800
				CHANNELS 3 Xrotation Yrotation Zrotation
				JOINT LeftFoot
				{
					OFFSET -0.430247 -48.264931 -6.423300
					CHANNELS 3 Xrotation Yrotation Zrotation
					JOINT LeftToeBase
					{
						OFFSET 4.230900 -16.068199 23.438400
						CHANNELS 3 Xrotation Yrotation Zrotation
						JOINT LeftToe_End
						{
							OFFSET 4.510700 0.695400 19.974600
							CHANNELS 3 Xrotation Yrotation Zrotation
							End Site
							{
								OFFSET 0 0 0
							}
						}
					}
				}
			}
		}
	}
	JOINT RightUpLeg_virtual
	{
		OFFSET 0.000000 0.000000 0.000000
		CHANNELS 3 Xrotation Yrotation Zrotation
		JOINT RightUpLeg
		{
			OFFSET -11.333700 -6.187798 -0.413800
			CHANNELS 3 Xrotation Yrotation Zrotation
			JOINT RightLeg
			{
				OFFSET -0.430392 -32.302628 3.733000
				CHANNELS 3 Xrotation Yrotation Zrotation
				JOINT RightFoot
				{
					OFFSET 0.430392 -48.264973 -6.423500
					CHANNELS 3 Xrotation Yrotation Zrotation
					JOINT RightToeBase
					{
						OFFSET -4.230900 -16.068199 23.438400
						CHANNELS 3 Xrotation Yrotation Zrotation
						JOINT RightToe_End
						{
							OFFSET -4.510700 0.695400 19.974600
							CHANNELS 3 Xrotation Yrotation Zrotation
							End Site
							{
								OFFSET 0 0 0
							}
						}
					}
				}
			}
		}
	}
	JOINT Spine_virtual
	{
		OFFSET 0.000000 0.000000 0.000000
		CHANNELS 3 Xrotation Yrotation Zrotation
		JOINT Spine
		{
			OFFSET -0.002400 12.777504 0.315300
			CHANNELS 3 Xrotation Yrotation Zrotation
			JOINT Spine1
			{
				OFFSET -0.002067 5.816869 0.032633
				CHANNELS 3 Xrotation Yrotation Zrotation
				JOINT Spine1_split
				{
					OFFSET -0.002067 5.816869 0.032633
					CHANNELS 3 Xrotation Yrotation Zrotation
					JOINT Spine2
					{
						OFFSET -0.002067 5.816869 0.032633
						CHANNELS 3 Xrotation Yrotation Zrotation
						JOINT Neck_virtual
						{
							OFFSET 0.000000 0.000000 0.000000
							CHANNELS 3 Xrotation Yrotation Zrotation
							JOINT Neck
							{
								OFFSET -0.003700 21.199493 -0.826900
								CHANNELS 3 Xrotation Yrotation Zrotation
								JOINT Head
								{
									OFFSET 0.000000 20.442200 4.834800
									CHANNELS 3 Xrotation Yrotation Zrotation
									JOINT HeadTop_End
									{
										OFFSET 0.000000 34.668396 4.968400
										CHANNELS 3 Xrotation Yrotation Zrotation
										End Site
										{
											OFFSET 0 0 0
										}
									}
								}
							}
						}
						JOINT LeftShoulder_virtual
						{
							OFFSET 0.000000 0.000000 0.000000
							CHANNELS 3 Xrotation Yrotation Zrotation
							JOINT LeftShoulder
							{
								OFFSET 3.288150 8.794197 -1.372250
								CHANNELS 3 Xrotation Yrotation Zrotation
								JOINT LeftShoulder_split
								{
									OFFSET 3.288150 8.794197 -1.372250
									CHANNELS 3 Xrotation Yrotation Zrotation
									JOINT LeftArm
									{
										OFFSET 11.953299 -2.279007 -0.146200
										CHANNELS 3 Xrotation Yrotation Zrotation
										JOINT LeftForeArm
										{
											OFFSET 18.448900 0.000000 0.000000
											CHANNELS 3 Xrotation Yrotation Zrotation
											JOINT LeftHand
											{
												OFFSET 29.527798 0.000000 0.000000
												CHANNELS 3 Xrotation Yrotation Zrotation
												End Site
												{
													OFFSET 0 0 0
												}
											}
										}
									}
								}
							}
						}
						JOINT RightShoulder_virtual
						{
							OFFSET 0.000000 0.000000 0.000000
							CHANNELS 3 Xrotation Yrotation Zrotation
							JOINT RightShoulder
							{
								OFFSET -3.249400 8.794197 -1.372250
								CHANNELS 3 Xrotation Yrotation Zrotation
								JOINT RightShoulder_split
								{
									OFFSET -3.249400 8.794197 -1.372250
									CHANNELS 3 Xrotation Yrotation Zrotation
									JOINT RightArm
									{
										OFFSET -11.953299 -2.279007 -0.146200
										CHANNELS 3 Xrotation Yrotation Zrotation
										JOINT RightForeArm
										{
											OFFSET -18.448900 0.000000 0.000000
											CHANNELS 3 Xrotation Yrotation Zrotation
											JOINT RightHand
											{
												OFFSET -29.527802 0.000000 0.000000
												CHANNELS 3 Xrotation Yrotation Zrotation
												End Site
												{
													OFFSET 0 0 0
												}
											}
										}
									}
								}
							}
						}
					}
				}
			}
		}
	}
}
MOTION
Frames: 6
Frame Time: 0.03333333
-6.601642 96.081238 0.182117 0.000000 0.000000 0.000000 3.230588 29.616202 0.741416 -37.849917 -18.374659 0.086716 32.302403 16.124892 -6.741705 6.340635 -0.841036 -5.020909 2.642309 -2.452452 -0.218420 0.000000 0.000000 0.000000 4.161206 28.086851 0.479438 -2.461678 -22.553370 -8.675290 26.186694 -9.334454 4.445396 -23.902448 -10.994620 -1.787998 -1.204385 -0.185389 -0.867974 0.000000 0.000000 0.000000 4.316100 29.080251 -0.302564 3.777598 4.368549 -0.837727 0.442250 3.217299 0.499000 0.435693 0.693763 0.090523 0.000000 0.000000 0.000000 1.571778 2.823567 0.866966 -3.141226 11.954471 -6.920976 -6.269423 9.408155 9.895173 0.000000 0.000000 0.000000 0.375997 3.079596 0.905359 -0.034034 -2.063298 -3.187091 2.907518 -1.105595 -0.122122 -74.296557 -0.220360 -25.546221 1.314233 -65.503358 3.300602 0.000000 0.000000 0.000000 1.092383 3.037362 0.907727 4.250775 12.188736 8.152616 -5.310698 -0.385623 0.336492 14.645963 -6.147721 67.278859 16.973275 40.795699 -6.979939 0.000000 0.000000 0.000000 
-6.575989 96.207932 -0.050621 0.000000 0.000000 0.000000 3.778872 26.770515 0.501273 -37.114920 -17.739120 1.506724 31.915650 16.978290 -6.765071 6.176086 -0.515699 -5.372953 2.871614 -2.507800 -0.362900 0.000000 0.000000 0.000000 4.815454 25.329420 0.259226 -3.763846 -21.078836 -8.525207 26.098610 -8.976311 4.277732 -22.924009 -10.853164 -1.693588 -1.333313 -0.185791 -1.054832 0.000000 0.000000 0.000000 4.866801 26.402904 -0.541416 3.776265 4.162263 -1.001504 0.576340 3.087347 0.491373 0.405553 0.809002 0.016806 0.000000 0.000000 0.000000 1.659762 2.684501 0.837803 -3.922971 8.639140 -6.344068 -4.631122 6.224993 10.306401 0.000000 0.000000 0.000000 0.430536 2.934806 0.874349 -0.025214 -2.643122 -3.301325 2.825209 -0.933742 0.008083 -74.701676 0.233101 -26.695750 1.896482 -67.750955 3.504248 0.000000 0.000000 0.000000 1.208986 2.890655 0.876670 4.227115 12.011438 7.946915 -5.312043 -0.257975 0.268296 14.085990 -5.938408 67.319683 17.389341 42.078145 -7.339666 0.000000 0.000000 0.000000 
-6.529037 96.335564 -0.323067 0.000000 0.000000 0.000000 4.367857 23.767467 0.261413 -36.464017 -17.265086 2.957296 31.551147 18.037427 -6.770771 6.024083 -0.063625 -5.822691 3.143171 -2.528744 -0.583958 0.000000 0.000000 0.000000 5.494644 22.342809 0.051398 -5.198209 -19.529613 -8.338239 25.982958 -8.527408 4.108066 -21.917136 -10.645200 -1.570974 -1.485751 -0.195989 -1.163848 0.000000 0.000000 0.000000 5.452615 23.468163 -0.759529 3.747355 3.949453 -1.162781 0.735774 2.944877 0.480531 0.397824 1.010070 -0.027953 0.000000 0.000000 0.000000 1.763601 2.537869 0.811832 -5.001813 5.291654 -5.880685 -3.002054 3.124911 10.534275 0.000000 0.000000 0.000000 0.495948 2.802955 0.846648 -0.002685 -3.298489 -3.310735 2.742608 -0.903458 0.094650 -74.970567 0.587558 -28.096680 2.742612 -70.142375 3.959424 0.000000 0.000000 0.000000 1.354512 2.746636 0.836606 4.177304 11.746189 7.708617 -5.239080 -0.122111 0.219644 13.549563 -5.603106 67.328494 17.866533 43.459268 -7.751901 0.000000 0.000000 0.000000 
-6.456096 96.471252 -0.624153 0.000000 0.000000 0.000000 4.968009 20.569033 0.030108 -35.860392 -16.919372 4.452204 31.221532 19.279660 -6.746408 5.902540 0.497455 -6.403643 3.393321 -2.522774 -0.863623 0.000000 0.000000 0.000000 6.148181 19.119708 -0.133093 -6.708020 -17.916730 -8.083351 25.824339 -7.972088 3.930174 -20.913127 -10.345834 -1.460944 -1.627916 -0.221750 -1.161029 0.000000 0.000000 0.000000 6.039224 20.237075 -0.938437 3.697473 3.725274 -1.307053 0.908334 2.783299 0.473036 0.391859 1.305515 -0.013390 0.000000 0.000000 0.000000 1.871848 2.380553 0.795835 -6.371408 1.862898 -5.455863 -1.330955 0.008523 10.612525 0.000000 0.000000 0.000000 0.572317 2.680043 0.825322 0.038446 -3.998809 -3.220586 2.659067 -1.041103 0.143702 -75.067303 0.733133 -29.761658 3.888271 -72.308153 4.708438 0.000000 0.000000 0.000000 1.529177 2.605760 0.791692 4.106572 11.436524 7.456109 -5.075917 0.051960 0.148022 13.085459 -5.116834 67.232673 18.378523 44.851417 -8.170010 0.000000 0.000000 0.000000 
-6.354589 96.614319 -0.943256 0.000000 0.000000 0.000000 5.543002 17.096513 -0.175790 -35.270253 -16.629351 6.018872 30.971049 20.581542 -6.690205 5.806779 1.106858 -7.126433 3.567992 -2.492022 -1.147294 0.000000 0.000000 0.000000 6.739252 15.614431 -0.284615 -8.249882 -16.241797 -7.758784 25.615040 -7.285531 3.745075 -19.908039 -9.931684 -1.375879 -1.722884 -0.262915 -1.051444 0.000000 0.000000 0.000000 6.572311 16.690518 -1.074918 3.643445 3.484705 -1.422620 1.083339 2.603428 0.478970 0.400880 1.580719 0.030039 0.000000 0.000000 0.000000 1.963635 2.211688 0.796557 -7.968730 -1.689622 -4.973432 0.395316 -3.223963 10.595030 0.000000 0.000000 0.000000 0.665422 2.549566 0.809604 0.099692 -4.720465 -3.037838 2.515381 -1.281963 0.155622 -75.025072 0.612302 -31.579407 5.174087 -73.780762 5.606300 0.000000 0.000000 0.000000 1.724271 2.464967 0.756466 4.018759 11.143141 7.222128 -4.829270 0.270972 0.005369 12.699969 -4.492968 66.963530 18.853566 46.070650 -8.513248 0.000000 0.000000 0.000000 
-6.225575 96.761879 -1.274700 0.000000 0.000000 0.000000 6.056555 13.287453 -0.344214 -34.612967 -16.267322 7.672931 30.805755 21.862196 -6.608287 5.646381 1.723098 -7.924658 3.734125 -2.447016 -1.407978 0.000000 0.000000 0.000000 7.248260 11.794340 -0.398891 -9.796854 -14.509499 -7.380374 25.379397 -6.437321 3.551427 -18.838401 -9.388472 -1.270704 -1.790255 -0.316092 -0.893016 0.000000 0.000000 0.000000 7.036440 12.782921 -1.169195 3.607659 3.217767 -1.500378 1.245428 2.402865 0.504088 0.447814 1.837925 0.045585 0.000000 0.000000 0.000000 2.024441 2.029077 0.823649 -9.692360 -5.393178 -4.365851 2.176757 -6.628025 10.525322 0.000000 0.000000 0.000000 0.761975 2.400733 0.799690 0.175824 -5.450690 -2.812328 2.315473 -1.548309 0.220440 -74.902115 0.268689 -33.365747 6.271756 -74.270541 6.342614 0.000000 0.000000 0.000000 1.921703 2.321766 0.743562 3.924620 10.908773 7.029774 -4.566445 0.529289 -0.180736 12.363678 -3.808014 66.441177 19.191696 46.937938 -8.690874 0.000000 0.000000 0.000000 
